# xmcd
#
# Track frame offsets: 
#        300
#        21116
#        46134
#        59794
#        81972
#        101451
#        112219
#        128445
#        142952
#
# Disc length: 2139 seconds
#
# Revision: 0
# Processed by: cddbd v1.5.2PL0 Copyright (c) Steve Scherf et al.
# Submitted via: ExactAudioCopy v0.99pb4
#
DISCID=78085709
DTITLE=Vargas Blues Band - Mojo Proteccion
DYEAR=2009
DGENRE=Blues
TTITLE0=Ride With My Blues
TTITLE1=Mojo Proteccion
TTITLE2=Suffering Screams
TTITLE3=Childrens And Guns
TTITLE4=Too Many Lies
TTITLE5=Reasons To Cry
TTITLE6=I Am Amazed
TTITLE7=Love On The Run
TTITLE8=Time Will Come
EXTD=
EXTT0=
EXTT1=
EXTT2=
EXTT3=
EXTT4=
EXTT5=
EXTT6=
EXTT7=
EXTT8=
PLAYORDER=
